<svg width="87" height="123" viewBox="0 0 87 123" fill="none" xmlns="http://www.w3.org/2000/svg">
<g clip-path="url(#clip0_1_838)">
<path d="M64.4566 74.6784C64.4554 71.5443 63.7514 68.4504 62.3962 65.6244C61.041 62.7985 59.0692 60.3124 56.626 58.3494C54.1828 56.3864 51.3304 54.9963 48.2789 54.2817C45.2274 53.567 42.0544 53.5458 38.9936 54.2197C35.9328 54.8937 33.0622 56.2456 30.593 58.1758C28.1239 60.1061 26.1191 62.5656 24.7264 65.3733C23.3336 68.1809 22.5884 71.2652 22.5454 74.399C22.5025 77.5328 23.163 80.6364 24.4783 83.4811L34.6399 105.732H52.3601L62.5217 83.4811C63.7998 80.7227 64.4601 77.7185 64.4566 74.6784Z" fill="#FFC43D"/>
<path d="M43.5 53.7219C42.5626 53.7288 41.6267 53.7985 40.6986 53.9307C43.949 54.3675 47.0514 55.5614 49.756 57.4164C52.4606 59.2714 54.6917 61.7356 56.2698 64.6106C57.8479 67.4855 58.7287 70.6909 58.8415 73.9686C58.9542 77.2462 58.2957 80.5045 56.9189 83.4811L46.7573 105.732H52.3601L62.5217 83.4811C63.9979 80.2875 64.6465 76.7737 64.4079 73.2635C64.1692 69.7533 63.051 66.3596 61.1561 63.3952C59.2613 60.4307 56.6508 57.9908 53.5653 56.3004C50.4797 54.6099 47.0183 53.7232 43.5 53.7219Z" fill="#FAAE17"/>
<path d="M43.5 37.8931V44.773" stroke="black" stroke-width="5" stroke-linecap="round" stroke-linejoin="round"/>
<path d="M69.3303 48.8186L64.5052 53.7219" stroke="black" stroke-width="5" stroke-linecap="round" stroke-linejoin="round"/>
<path d="M79.3683 74.8333H72.4901" stroke="black" stroke-width="5" stroke-linecap="round" stroke-linejoin="round"/>
<path d="M17.6697 48.8186L22.4947 53.7219" stroke="black" stroke-width="5" stroke-linecap="round" stroke-linejoin="round"/>
<path d="M7.63159 74.8333H14.5098" stroke="black" stroke-width="5" stroke-linecap="round" stroke-linejoin="round"/>
<path d="M34.626 105.732H52.374V112.238C52.374 114.592 51.439 116.849 49.7748 118.513C48.1106 120.177 45.8535 121.112 43.5 121.112C41.1464 121.112 38.8893 120.177 37.2251 118.513C35.5609 116.849 34.626 114.592 34.626 112.238V105.732Z" fill="#727373"/>
<path d="M46.766 105.732V112.238C46.7641 114.099 46.1772 115.912 45.0884 117.421C43.9996 118.93 42.464 120.059 40.6986 120.647C41.6015 120.951 42.5476 121.106 43.5 121.107C44.6654 121.107 45.8193 120.877 46.8959 120.431C47.9726 119.985 48.9508 119.332 49.7749 118.508C50.5989 117.684 51.2526 116.705 51.6985 115.629C52.1445 114.552 52.374 113.398 52.374 112.233V105.732H46.766Z" fill="#606161"/>
<path d="M34.626 105.732H52.374V112.238C52.374 114.592 51.439 116.849 49.7748 118.513C48.1106 120.177 45.8535 121.112 43.5 121.112C41.1464 121.112 38.8893 120.177 37.2251 118.513C35.5609 116.849 34.626 114.592 34.626 112.238V105.732Z" stroke="black" stroke-width="2" stroke-linecap="round" stroke-linejoin="round"/>
<path d="M32.4319 111.887H54.5682" stroke="black" stroke-width="2" stroke-linecap="round" stroke-linejoin="round"/>
<path d="M32.4319 105.732H54.5682" stroke="black" stroke-width="2" stroke-linecap="round" stroke-linejoin="round"/>
</g>
<path d="M64.4561 16.9242C64.455 14.6701 63.7509 12.445 62.3957 10.4125C61.0405 8.38008 59.0687 6.59213 56.6255 5.18032C54.1823 3.76851 51.33 2.76879 48.2784 2.25478C45.2269 1.74077 42.0539 1.72555 38.9931 2.21026C35.9323 2.69496 33.0617 3.66723 30.5925 5.05549C28.1234 6.44374 26.1186 8.21263 24.7259 10.2319C23.3331 12.2512 22.5879 14.4694 22.5449 16.7232C22.502 18.9771 23.1625 21.2091 24.4778 23.2551L34.6394 39.2581H52.3596L62.5212 23.2551C63.7993 21.2712 64.4596 19.1106 64.4561 16.9242Z" stroke="black" stroke-width="2" stroke-linecap="round" stroke-linejoin="round"/>
<defs>
<clipPath id="clip0_1_838">
<rect width="87" height="87" fill="white" transform="translate(0 36)"/>
</clipPath>
</defs>
</svg>
