<svg width="38" height="40" viewBox="0 0 38 40" fill="none" xmlns="http://www.w3.org/2000/svg">
<path d="M23.2141 37.837H14.7851C14.6837 37.837 14.5865 37.8793 14.5148 37.9545C14.4431 38.0298 14.4028 38.1318 14.4028 38.2382C14.4028 38.3446 14.4431 38.4466 14.5148 38.5218C14.5865 38.5971 14.6837 38.6393 14.7851 38.6393H23.2141C23.3155 38.6393 23.4127 38.5971 23.4844 38.5218C23.556 38.4466 23.5963 38.3446 23.5963 38.2382C23.5963 38.1318 23.556 38.0298 23.4844 37.9545C23.4127 37.8793 23.3155 37.837 23.2141 37.837Z" fill="#6255A5"/>
<path d="M5.5449 23.1042C5.545 23.0514 5.53518 22.9992 5.51601 22.9505C5.49683 22.9018 5.46868 22.8575 5.43317 22.8203C5.39766 22.783 5.35548 22.7535 5.30906 22.7333C5.26265 22.7132 5.2129 22.7029 5.16268 22.703H1.79092C1.68955 22.703 1.59232 22.7453 1.52064 22.8205C1.44896 22.8957 1.40869 22.9978 1.40869 23.1042C1.40869 23.2106 1.44896 23.3126 1.52064 23.3878C1.59232 23.463 1.68955 23.5053 1.79092 23.5053H5.16268C5.21287 23.5053 5.26257 23.4949 5.30895 23.4748C5.35532 23.4546 5.39746 23.4251 5.43295 23.3878C5.46844 23.3506 5.4966 23.3063 5.51581 23.2577C5.53502 23.209 5.5449 23.1568 5.5449 23.1042Z" fill="#6255A5"/>
<path d="M7.59775 31.9023L4.92587 34.0646C4.84556 34.1297 4.79317 34.2256 4.78023 34.3312C4.76728 34.4368 4.79484 34.5435 4.85685 34.6278C4.91885 34.7121 5.01022 34.7671 5.11085 34.7807C5.21149 34.7943 5.31314 34.7653 5.39345 34.7003L8.06533 32.5379C8.14564 32.4728 8.19803 32.3769 8.21097 32.2713C8.22392 32.1657 8.19635 32.059 8.13435 31.9747C8.07234 31.8905 7.98098 31.8355 7.88034 31.8219C7.77971 31.8083 7.67806 31.8372 7.59775 31.9023Z" fill="#6255A5"/>
<path d="M4.95414 13.3198L7.55179 15.5788C7.59049 15.6124 7.63511 15.6376 7.68311 15.6532C7.73111 15.6687 7.78155 15.6741 7.83155 15.6691C7.88155 15.6642 7.93013 15.6489 7.97452 15.6243C8.01891 15.5996 8.05823 15.566 8.09025 15.5254C8.12227 15.4848 8.14635 15.438 8.16112 15.3876C8.17589 15.3372 8.18107 15.2843 8.17635 15.2318C8.17163 15.1793 8.1571 15.1283 8.13361 15.0817C8.11011 15.0352 8.0781 14.9939 8.03941 14.9603L5.44175 12.7053C5.36324 12.6471 5.26673 12.6221 5.17145 12.6353C5.07617 12.6484 4.98911 12.6988 4.92761 12.7763C4.86612 12.8538 4.8347 12.9528 4.83961 13.0535C4.84453 13.1542 4.88542 13.2493 4.95414 13.3198Z" fill="#6255A5"/>
<path d="M36.2091 22.703H32.8373C32.7359 22.703 32.6387 22.7453 32.567 22.8205C32.4953 22.8957 32.4551 22.9978 32.4551 23.1042C32.4551 23.2105 32.4953 23.3126 32.567 23.3878C32.6387 23.463 32.7359 23.5053 32.8373 23.5053H36.2091C36.3104 23.5053 36.4077 23.463 36.4793 23.3878C36.551 23.3126 36.5913 23.2105 36.5913 23.1042C36.5913 22.9978 36.551 22.8957 36.4793 22.8205C36.4077 22.7453 36.3104 22.703 36.2091 22.703Z" fill="#6255A5"/>
<path d="M33.0712 34.0646L30.3993 31.9023C30.3595 31.8701 30.3141 31.8464 30.2656 31.8326C30.2171 31.8188 30.1665 31.8152 30.1167 31.8219C30.0669 31.8286 30.0188 31.8456 29.9752 31.8718C29.9316 31.898 29.8934 31.933 29.8627 31.9747C29.832 32.0165 29.8094 32.0642 29.7963 32.115C29.7831 32.1659 29.7797 32.219 29.7861 32.2713C29.7925 32.3236 29.8087 32.3741 29.8336 32.4198C29.8586 32.4656 29.892 32.5057 29.9317 32.5379L32.6036 34.7003C32.6434 34.7325 32.6888 34.7562 32.7373 34.77C32.7858 34.7838 32.8364 34.7874 32.8862 34.7807C32.936 34.7739 32.9841 34.757 33.0277 34.7308C33.0713 34.7045 33.1095 34.6695 33.1402 34.6278C33.1709 34.5861 33.1935 34.5384 33.2066 34.4875C33.2198 34.4366 33.2232 34.3835 33.2168 34.3312C33.2104 34.2789 33.1943 34.2285 33.1693 34.1827C33.1443 34.137 33.1109 34.0969 33.0712 34.0646Z" fill="#6255A5"/>
<path d="M32.3401 17.3151C32.3483 17.0433 32.3995 14.6332 31.5527 13.7156C31.4284 13.5797 31.2761 13.4755 31.1074 13.4111V6.86796C31.107 6.84997 31.1055 6.83201 31.1029 6.81422C31.1033 6.81033 31.1033 6.80642 31.1029 6.80253C31.0973 6.7673 31.0873 6.73299 31.0732 6.70049C31.0731 6.6979 31.0731 6.6953 31.0732 6.6927C31.058 6.66076 31.0391 6.63093 31.0168 6.6039L31.0109 6.59689C30.9997 6.58417 30.9878 6.5722 30.9753 6.56106C30.9621 6.54973 30.9482 6.53932 30.9337 6.5299L30.9248 6.52367C30.9098 6.51413 30.8942 6.5058 30.878 6.49874L19.1485 1.27439C19.1015 1.25378 19.051 1.24316 19.0001 1.24316C18.9491 1.24316 18.8986 1.25378 18.8516 1.27439L7.12877 6.49952C7.05973 6.53031 7.00085 6.58173 6.95946 6.64738C6.91807 6.71303 6.896 6.79002 6.896 6.86874C6.896 6.94747 6.91807 7.02445 6.95946 7.0901C7.00085 7.15576 7.05973 7.20718 7.12877 7.23796L11.9367 9.38161V16.431C11.9366 16.4837 11.9464 16.5358 11.9655 16.5845C11.9846 16.6331 12.0127 16.6774 12.0481 16.7146C12.0836 16.7519 12.1257 16.7815 12.172 16.8016C12.2183 16.8218 12.268 16.8322 12.3181 16.8322C11.2105 17.9397 10.3684 19.3066 9.86064 20.8212C9.35291 22.3358 9.194 23.955 9.39692 25.5464C9.59983 27.1378 10.1588 28.6562 11.0281 29.9774C11.8974 31.2986 13.0524 32.385 14.3985 33.1479V35.3484C14.3987 35.4547 14.439 35.5566 14.5107 35.6318C14.5823 35.707 14.6794 35.7493 14.7807 35.7495H23.2142C23.2645 35.7495 23.3142 35.7391 23.3606 35.7189C23.4071 35.6987 23.4492 35.6691 23.4847 35.6318C23.5202 35.5944 23.5484 35.5501 23.5675 35.5014C23.5867 35.4526 23.5965 35.4004 23.5964 35.3476C23.5966 35.3177 23.5934 35.2879 23.5868 35.2588V33.1557C24.9353 32.3944 26.0927 31.3087 26.9643 29.9874C27.8359 28.6662 28.3968 27.1469 28.601 25.5543C28.8052 23.9616 28.6469 22.3409 28.1391 20.8248C27.6314 19.3087 26.7885 17.9404 25.6797 16.8322C25.7299 16.8322 25.7796 16.8218 25.8259 16.8016C25.8722 16.7815 25.9143 16.7519 25.9498 16.7146C25.9852 16.6774 26.0133 16.6331 26.0324 16.5845C26.0515 16.5358 26.0613 16.4837 26.0612 16.431V9.38083L30.3392 7.47787V13.4134C30.1704 13.4776 30.018 13.5818 29.8939 13.718C29.0471 14.6356 29.0975 17.0456 29.1064 17.3175C29.1093 17.4218 29.1509 17.5209 29.2222 17.5936C29.2936 17.6663 29.3892 17.707 29.4886 17.7069H31.9609C32.0602 17.7061 32.1554 17.6648 32.2261 17.5917C32.2969 17.5185 32.3378 17.4193 32.3401 17.3151ZM19.0001 2.07981L28.8437 6.46525H19.0001C18.8987 6.46525 18.8015 6.50751 18.7298 6.58275C18.6581 6.65798 18.6178 6.76001 18.6178 6.86641C18.6178 6.9728 18.6581 7.07483 18.7298 7.15006C18.8015 7.2253 18.8987 7.26756 19.0001 7.26756H28.8437L25.5855 8.72418C25.5488 8.73385 25.5138 8.74935 25.4816 8.77014L19.0001 11.6577L12.5185 8.76858C12.4862 8.74782 12.4512 8.73208 12.4146 8.72184L8.25838 6.86874L19.0001 2.07981ZM16.8284 25.3468C15.8888 25.0819 15.1719 24.6317 14.7599 24.0273C14.3955 23.4913 14.3146 22.8659 14.5247 22.2186C14.6553 21.819 14.8512 21.7512 14.9833 21.7512C15.0167 21.7516 15.05 21.7553 15.0828 21.7621C15.7945 21.8859 16.8284 23.2226 16.8284 25.0336V25.3468ZM20.4102 34.9465H17.5899V26.322C18.5238 26.4537 19.4703 26.4537 20.4043 26.322L20.4102 34.9465ZM27.9263 24.1971C27.9307 25.9294 27.4753 27.6288 26.6114 29.1048C25.7474 30.5809 24.5089 31.7753 23.0346 32.5543C22.9715 32.5879 22.9186 32.6392 22.8817 32.7024C22.8447 32.7657 22.8252 32.8384 22.8253 32.9126V34.948H21.1717V26.1725C22.3815 25.8671 23.3203 25.2915 23.8621 24.4954C24.369 23.75 24.4885 22.8503 24.1983 21.9599C23.9601 21.2309 23.4339 20.8609 22.7882 20.9746C21.6601 21.1717 20.4035 22.8892 20.4035 25.0383V25.5143C19.4701 25.6537 18.5226 25.6537 17.5892 25.5143V25.0383C17.5892 22.8892 16.3326 21.1717 15.2045 20.9746C14.561 20.8624 14.0356 21.2309 13.7944 21.9599C13.5042 22.8503 13.6237 23.7515 14.1313 24.4954C14.6731 25.2915 15.612 25.8671 16.8217 26.1725V34.9465H15.1674V32.9041C15.1675 32.8301 15.1481 32.7575 15.1113 32.6944C15.0745 32.6313 15.0217 32.5801 14.9588 32.5465C13.6224 31.8335 12.4787 30.7786 11.6332 29.4793C10.7877 28.18 10.2677 26.678 10.1212 25.1122C9.97472 23.5463 10.2064 21.9669 10.7949 20.5197C11.3835 19.0726 12.3098 17.8044 13.4886 16.8322H24.513C25.579 17.7052 26.4405 18.8226 27.0316 20.0989C27.6228 21.3751 27.9278 22.7764 27.9234 24.1955L27.9263 24.1971ZM21.1724 25.3483V25.0368C21.1724 23.2257 22.2063 21.8891 22.9181 21.7652C22.9508 21.7584 22.9841 21.7547 23.0175 21.7543C23.1496 21.7543 23.3456 21.819 23.4754 22.2217C23.687 22.869 23.6053 23.4945 23.2409 24.0304C22.8283 24.6317 22.1113 25.0819 21.1717 25.3468L21.1724 25.3483ZM25.2997 16.0314H12.7011V9.722L18.8516 12.4631C18.8986 12.484 18.9491 12.4947 19.0001 12.4947C19.0511 12.4947 19.1015 12.484 19.1485 12.4631L25.2983 9.722L25.2997 16.0314ZM29.8657 16.9031C29.8805 15.9894 30.0327 14.7166 30.4401 14.2757C30.5029 14.201 30.5884 14.1514 30.6821 14.1355H30.7214H30.7615C30.8551 14.1518 30.9405 14.2013 31.0035 14.2757C31.4109 14.7166 31.5631 15.9894 31.5779 16.9031H29.8657Z" fill="#6255A5"/>
</svg>
