<svg width="43" height="48" viewBox="0 0 43 48" fill="none" xmlns="http://www.w3.org/2000/svg">
<path d="M31.9007 24.0466C31.7754 23.9109 31.6269 23.8034 31.4635 23.7303C31.3001 23.6572 31.1252 23.6199 30.9486 23.6206C30.772 23.6213 30.5973 23.6599 30.4345 23.7343C30.2716 23.8086 30.1237 23.9172 29.9993 24.0539C29.8749 24.1906 29.7764 24.3527 29.7094 24.5309C29.6424 24.7092 29.6082 24.9001 29.6089 25.0927C29.6095 25.2853 29.6449 25.476 29.713 25.6537C29.7812 25.8314 29.8807 25.9927 30.006 26.1284C31.1431 27.3559 32.0456 28.8172 32.6615 30.4278C33.2773 32.0384 33.5942 33.7663 33.5938 35.5114C33.5938 37.3 28.8773 39.9097 21.5001 39.9097C14.1229 39.9097 9.40633 37.3 9.40633 35.5114C9.4042 33.7778 9.71522 32.0607 10.3216 30.4582C10.928 28.8558 11.8179 27.3994 12.9404 26.1724C13.1907 25.8977 13.3311 25.5261 13.3311 25.1388C13.3311 24.7515 13.1907 24.3799 12.9404 24.1052C12.6886 23.8322 12.3481 23.6789 11.9931 23.6789C11.6381 23.6789 11.2975 23.8322 11.0457 24.1052C9.66851 25.5994 8.57688 27.377 7.83413 29.335C7.09138 31.293 6.71229 33.3924 6.71883 35.5114C6.71883 40.2762 14.3379 42.8418 21.5001 42.8418C28.6623 42.8418 36.2813 40.2762 36.2813 35.5114C36.2865 33.3786 35.9017 31.2661 35.1495 29.2975C34.3974 27.329 33.2929 25.5438 31.9007 24.0466Z" fill="black"/>
<path d="M21.5 25.2487C23.3604 25.2487 25.179 24.6468 26.7258 23.5192C28.2727 22.3915 29.4783 20.7887 30.1902 18.9135C30.9022 17.0382 31.0885 14.9747 30.7255 12.984C30.3626 10.9932 29.4667 9.16462 28.1512 7.72936C26.8357 6.29411 25.1597 5.31669 23.3351 4.92071C21.5104 4.52472 19.6192 4.72796 17.9004 5.50471C16.1816 6.28146 14.7126 7.59685 13.679 9.28452C12.6454 10.9722 12.0938 12.9564 12.0938 14.9861C12.0938 17.7079 13.0848 20.3183 14.8488 22.2429C16.6128 24.1675 19.0053 25.2487 21.5 25.2487ZM21.5 7.65569C22.8288 7.65569 24.1278 8.08561 25.2327 8.89109C26.3376 9.69657 27.1988 10.8414 27.7073 12.1809C28.2158 13.5204 28.3489 14.9943 28.0897 16.4162C27.8304 17.8382 27.1905 19.1443 26.2509 20.1695C25.3112 21.1947 24.1141 21.8929 22.8108 22.1757C21.5075 22.4586 20.1565 22.3134 18.9288 21.7586C17.7012 21.2037 16.6518 20.2642 15.9136 19.0587C15.1753 17.8532 14.7812 16.4359 14.7812 14.9861C14.7813 13.042 15.4891 11.1774 16.7491 9.80272C18.0091 8.428 19.7181 7.65569 21.5 7.65569Z" fill="black"/>
</svg>
