<svg width="90" height="23" viewBox="0 0 90 23" fill="none" xmlns="http://www.w3.org/2000/svg">
<path d="M0.896307 22V0.181818H5.50923V18.1967H14.8629V22H0.896307ZM25.29 22.3196C23.6067 22.3196 22.1578 21.9787 20.9434 21.2969C19.736 20.608 18.8056 19.6349 18.1522 18.3778C17.4988 17.1136 17.1721 15.6186 17.1721 13.8928C17.1721 12.2095 17.4988 10.7322 18.1522 9.46094C18.8056 8.18963 19.7253 7.19886 20.9114 6.48864C22.1046 5.77841 23.5037 5.4233 25.1088 5.4233C26.1884 5.4233 27.1934 5.5973 28.1238 5.94531C29.0613 6.28622 29.878 6.80114 30.574 7.49006C31.2772 8.17898 31.824 9.04545 32.2147 10.0895C32.6053 11.1264 32.8006 12.3409 32.8006 13.733V14.9794H18.9831V12.1669H28.5286C28.5286 11.5135 28.3865 10.9347 28.1025 10.4304C27.8184 9.92614 27.4242 9.53196 26.9199 9.24787C26.4228 8.95668 25.8439 8.81108 25.1834 8.81108C24.4945 8.81108 23.8837 8.97088 23.351 9.29048C22.8255 9.60298 22.4135 10.0256 22.1152 10.5582C21.8169 11.0838 21.6642 11.6697 21.6571 12.3161V14.9901C21.6571 15.7997 21.8063 16.4993 22.1046 17.0888C22.41 17.6783 22.8397 18.1328 23.3936 18.4524C23.9476 18.772 24.6046 18.9318 25.3645 18.9318C25.8688 18.9318 26.3304 18.8608 26.7495 18.7188C27.1685 18.5767 27.5272 18.3636 27.8255 18.0795C28.1238 17.7955 28.351 17.4474 28.5073 17.0355L32.7047 17.3125C32.4917 18.321 32.0549 19.2017 31.3944 19.9545C30.7409 20.7003 29.8958 21.2827 28.8588 21.7017C27.829 22.1136 26.6394 22.3196 25.29 22.3196ZM40.4284 22.3089C39.3844 22.3089 38.454 22.1278 37.6373 21.7656C36.8205 21.3963 36.1742 20.853 35.6983 20.1357C35.2296 19.4112 34.9952 18.5092 34.9952 17.4297C34.9952 16.5206 35.1621 15.7571 35.4959 15.1392C35.8297 14.5213 36.2843 14.0241 36.8596 13.6477C37.4348 13.2713 38.0882 12.9872 38.8198 12.7955C39.5584 12.6037 40.3326 12.4688 41.1422 12.3906C42.0939 12.2912 42.861 12.1989 43.4434 12.1136C44.0257 12.0213 44.4483 11.8864 44.7111 11.7088C44.9739 11.5312 45.1053 11.2685 45.1053 10.9205V10.8565C45.1053 10.1818 44.8922 9.6598 44.4661 9.29048C44.0471 8.92116 43.4505 8.73651 42.6763 8.73651C41.8596 8.73651 41.2097 8.91761 40.7267 9.27983C40.2438 9.63494 39.9242 10.0824 39.7679 10.6222L35.5705 10.2812C35.7836 9.28693 36.2026 8.42756 36.8276 7.70312C37.4526 6.97159 38.2587 6.41051 39.2459 6.01989C40.2402 5.62216 41.3908 5.4233 42.6976 5.4233C43.6067 5.4233 44.4767 5.52983 45.3077 5.7429C46.1458 5.95597 46.888 6.28622 47.5343 6.73366C48.1877 7.18111 48.7026 7.75639 49.079 8.45952C49.4554 9.15554 49.6436 9.99006 49.6436 10.9631V22H45.3397V19.7308H45.2118C44.949 20.2422 44.5975 20.6932 44.1571 21.0838C43.7168 21.4673 43.1877 21.7692 42.5698 21.9893C41.9519 22.2024 41.2381 22.3089 40.4284 22.3089ZM41.7282 19.1768C42.3958 19.1768 42.9853 19.0455 43.4966 18.7827C44.008 18.5128 44.4093 18.1506 44.7005 17.696C44.9917 17.2415 45.1373 16.7266 45.1373 16.1513V14.4148C44.9952 14.5071 44.7999 14.5923 44.5513 14.6705C44.3098 14.7415 44.0364 14.8089 43.731 14.8729C43.4256 14.9297 43.1202 14.983 42.8148 15.0327C42.5094 15.0753 42.2324 15.1143 41.9838 15.1499C41.4512 15.228 40.986 15.3523 40.5882 15.5227C40.1905 15.6932 39.8816 15.924 39.6614 16.2152C39.4412 16.4993 39.3311 16.8544 39.3311 17.2805C39.3311 17.8984 39.5549 18.3707 40.0023 18.6974C40.4569 19.017 41.0321 19.1768 41.7282 19.1768ZM53.1646 22V5.63636H57.5645V8.49148H57.7349C58.0332 7.47585 58.5339 6.70881 59.237 6.19034C59.9402 5.66477 60.7498 5.40199 61.666 5.40199C61.8933 5.40199 62.1383 5.41619 62.4011 5.4446C62.6639 5.47301 62.8947 5.51207 63.0936 5.56179V9.58878C62.8805 9.52486 62.5858 9.46804 62.2093 9.41832C61.8329 9.36861 61.4885 9.34375 61.176 9.34375C60.5083 9.34375 59.9118 9.48935 59.3862 9.78054C58.8677 10.0646 58.4558 10.4624 58.1504 10.9737C57.8521 11.4851 57.7029 12.0746 57.7029 12.7422V22H53.1646ZM69.9783 12.5398V22H65.44V5.63636H69.7653V8.52344H69.957C70.3192 7.57173 70.9265 6.81889 71.7788 6.26491C72.631 5.70384 73.6644 5.4233 74.8789 5.4233C76.0153 5.4233 77.006 5.67187 77.8512 6.16903C78.6964 6.66619 79.3533 7.37642 79.8221 8.29972C80.2908 9.21591 80.5252 10.3097 80.5252 11.581V22H75.9869V12.3906C75.994 11.3892 75.7383 10.608 75.2198 10.0469C74.7013 9.47869 73.9876 9.1946 73.0785 9.1946C72.4677 9.1946 71.9279 9.32599 71.4592 9.58878C70.9975 9.85156 70.6353 10.2351 70.3725 10.7393C70.1168 11.2365 69.9854 11.8366 69.9783 12.5398ZM86.7548 22.277C86.0517 22.277 85.448 22.0284 84.9437 21.5312C84.4466 21.027 84.198 20.4233 84.198 19.7202C84.198 19.0241 84.4466 18.4276 84.9437 17.9304C85.448 17.4332 86.0517 17.1847 86.7548 17.1847C87.4366 17.1847 88.0332 17.4332 88.5446 17.9304C89.0559 18.4276 89.3116 19.0241 89.3116 19.7202C89.3116 20.1889 89.1909 20.6186 88.9494 21.0092C88.715 21.3928 88.4061 21.7017 88.0225 21.9361C87.639 22.1634 87.2164 22.277 86.7548 22.277Z" fill="#6255A5"/>
</svg>
