<svg width="44" height="27" viewBox="0 0 44 27" fill="none" xmlns="http://www.w3.org/2000/svg">
<path d="M43.5257 7.91321L22.7475 0.12246C22.507 0.0417309 22.2464 0 21.9829 0C21.7194 0 21.4588 0.0417309 21.2183 0.12246L0.445016 7.91321C0.315636 7.94483 0.202913 8.00632 0.12298 8.08889C0.0430468 8.17146 0 8.27087 0 8.37289C0 8.47491 0.0430468 8.57432 0.12298 8.65689C0.202913 8.73946 0.315636 8.80095 0.445016 8.83257L3.58642 10.0083H3.42031V23.0259C3.18739 23.1258 2.99881 23.2748 2.87801 23.4544L1.51983 25.5129C1.416 25.6696 1.36718 25.8436 1.378 26.0185C1.38881 26.1933 1.45891 26.3631 1.58165 26.512C1.7044 26.6608 1.87575 26.7838 2.0795 26.8692C2.28325 26.9545 2.51268 26.9996 2.7461 27H5.49666C5.73117 27.0005 5.96194 26.956 6.16698 26.8707C6.37202 26.7853 6.54449 26.6621 6.66794 26.5126C6.7914 26.3631 6.86171 26.1924 6.87219 26.0168C6.88268 25.8411 6.83297 25.6664 6.72782 25.5092L5.37452 23.4544C5.25373 23.2748 5.06514 23.1258 4.83223 23.0259V10.4662L8.2521 11.7555V18.1214C8.2521 19.5645 9.71776 20.9051 12.3657 21.8977C14.9453 22.8647 18.3652 23.3958 21.9951 23.3958C25.6251 23.3958 29.0449 22.8647 31.6245 21.8977C34.2774 20.9051 35.7381 19.5609 35.7381 18.1214V11.7555L43.555 8.82524C43.6844 8.79362 43.7971 8.73213 43.877 8.64956C43.957 8.56699 44 8.46759 44 8.36556C44 8.26354 43.957 8.16413 43.877 8.08157C43.7971 7.999 43.6844 7.9375 43.555 7.90588L43.5257 7.91321ZM5.49666 25.9744H2.7461L4.11894 23.9159L5.49666 25.9744ZM34.3506 18.1214C34.3506 19.1543 33.1586 20.1689 30.9992 20.9784C28.6101 21.8721 25.4052 22.3702 21.9853 22.3702C18.5655 22.3702 15.3606 21.8721 12.9715 20.9784C10.8121 20.1689 9.62005 19.147 9.62005 18.1214V12.2609L21.2183 16.6197C21.4588 16.7004 21.7194 16.7421 21.9829 16.7421C22.2464 16.7421 22.507 16.7004 22.7475 16.6197L34.3506 12.2683V18.1214ZM22.1368 15.693C22.085 15.6993 22.0322 15.6993 21.9805 15.693C21.9302 15.6982 21.8792 15.6982 21.829 15.693L2.28686 8.3674L21.829 1.04182C21.8808 1.03553 21.9336 1.03553 21.9853 1.04182C22.0356 1.03656 22.0866 1.03656 22.1368 1.04182L41.6789 8.3674L22.1368 15.693Z" fill="black"/>
</svg>
