<svg width="40" height="51" viewBox="0 0 40 51" fill="none" xmlns="http://www.w3.org/2000/svg">
<path d="M18.7885 30.137V25.1839C18.7881 24.8433 18.6639 24.5167 18.4431 24.2758C18.2224 24.0349 17.923 23.8994 17.6108 23.899H15.9162C15.7919 23.899 15.6727 23.9529 15.5848 24.0488C15.4969 24.1448 15.4475 24.2748 15.4475 24.4105C15.4475 24.5461 15.4969 24.6762 15.5848 24.7721C15.6727 24.868 15.7919 24.9219 15.9162 24.9219H17.6108C17.6744 24.922 17.7355 24.9496 17.7805 24.9987C17.8255 25.0478 17.8508 25.1144 17.8509 25.1839V30.137C17.8508 30.2065 17.8255 30.2731 17.7805 30.3222C17.7355 30.3713 17.6744 30.3989 17.6108 30.399H5.57438C5.51071 30.3989 5.44967 30.3713 5.40465 30.3222C5.35963 30.2731 5.3343 30.2065 5.33423 30.137V25.1839C5.33431 25.1144 5.35963 25.0478 5.40465 24.9987C5.44967 24.9496 5.51071 24.922 5.57438 24.9219H13.4323C13.5567 24.9219 13.6759 24.868 13.7638 24.7721C13.8517 24.6762 13.9011 24.5461 13.9011 24.4105C13.9011 24.2748 13.8517 24.1448 13.7638 24.0488C13.6759 23.9529 13.5567 23.899 13.4323 23.899H5.57438C5.26216 23.8994 4.96282 24.0349 4.74204 24.2758C4.52127 24.5167 4.39708 24.8433 4.39673 25.1839V30.137C4.39708 30.4776 4.52127 30.8042 4.74204 31.0451C4.96282 31.286 5.26216 31.4215 5.57438 31.4219H17.6108C17.923 31.4215 18.2224 31.286 18.4431 31.0451C18.6639 30.8042 18.7881 30.4776 18.7885 30.137Z" fill="black"/>
<path d="M24.6061 23.899H21.3929C21.1336 23.8994 20.885 24.0119 20.7016 24.212C20.5182 24.4121 20.4151 24.6833 20.4148 24.9663V30.3546C20.4151 30.6376 20.5182 30.9088 20.7016 31.1089C20.885 31.309 21.1336 31.4216 21.3929 31.4219H24.6061C24.8654 31.4216 25.1141 31.309 25.2974 31.1089C25.4808 30.9088 25.5839 30.6376 25.5842 30.3546V24.9663C25.5839 24.6833 25.4808 24.4121 25.2974 24.212C25.114 24.0119 24.8654 23.8994 24.6061 23.899ZM24.6467 30.3546C24.6467 30.3664 24.6424 30.3776 24.6348 30.386C24.6272 30.3943 24.6169 30.399 24.6061 30.399H21.3929C21.3822 30.399 21.3718 30.3943 21.3642 30.386C21.3566 30.3776 21.3523 30.3664 21.3523 30.3546V24.9662C21.3523 24.9545 21.3566 24.9432 21.3642 24.9349C21.3718 24.9266 21.3822 24.9219 21.3929 24.9219H24.6061C24.6169 24.9219 24.6272 24.9266 24.6348 24.9349C24.6424 24.9432 24.6467 24.9545 24.6467 24.9662V30.3546Z" fill="black"/>
<path d="M24.9875 36.3759H16.1804C16.0561 36.3759 15.9369 36.4297 15.849 36.5256C15.7611 36.6216 15.7117 36.7516 15.7117 36.8873C15.7117 37.0229 15.7611 37.153 15.849 37.2489C15.9369 37.3448 16.0561 37.3987 16.1804 37.3987H24.9875C25.1118 37.3987 25.2311 37.3448 25.319 37.2489C25.4069 37.153 25.4563 37.0229 25.4563 36.8873C25.4563 36.7516 25.4069 36.6216 25.319 36.5256C25.2311 36.4297 25.1118 36.3759 24.9875 36.3759Z" fill="black"/>
<path d="M24.9875 33.7631H16.1804C16.0561 33.7631 15.9369 33.8169 15.849 33.9129C15.7611 34.0088 15.7117 34.1388 15.7117 34.2745C15.7117 34.4101 15.7611 34.5402 15.849 34.6361C15.9369 34.732 16.0561 34.7859 16.1804 34.7859H24.9875C25.1118 34.7859 25.2311 34.732 25.319 34.6361C25.4069 34.5402 25.4563 34.4101 25.4563 34.2745C25.4563 34.1388 25.4069 34.0088 25.319 33.9129C25.2311 33.8169 25.1118 33.7631 24.9875 33.7631Z" fill="black"/>
<path d="M39.858 11.9578C39.858 9.00372 38.7903 6.16883 36.8867 4.06815C34.9831 1.96747 32.3971 0.77046 29.6897 0.736813C26.9823 0.703166 24.372 1.8356 22.425 3.88842C20.4781 5.94125 19.3515 8.74887 19.2898 11.7022H9.60768V11.6642C9.60733 11.3261 9.48409 11.002 9.265 10.763C9.04591 10.5239 8.74885 10.3895 8.43901 10.3891H5.56544C5.2556 10.3895 4.95855 10.5239 4.73946 10.763C4.52037 11.002 4.39713 11.3261 4.39677 11.6642V11.7736C3.21062 11.9836 2.1315 12.6468 1.35212 13.6447C0.572751 14.6427 0.143877 15.9104 0.14209 17.2214V46.5103V46.5123C0.141884 47.0476 0.238369 47.5777 0.426029 48.0723C0.613689 48.5668 0.888846 49.0162 1.23577 49.3947C1.5827 49.7733 1.99459 50.0735 2.44791 50.2782C2.90123 50.483 3.38709 50.5882 3.87772 50.588H29.3379C29.4627 50.5869 29.582 50.532 29.6699 50.4353C29.7577 50.3386 29.8069 50.2079 29.8067 50.0717V46.5123C29.8067 46.3766 29.7573 46.2466 29.6694 46.1506C29.5815 46.0547 29.4623 46.0008 29.3379 46.0008C29.2136 46.0008 29.0944 46.0547 29.0065 46.1506C28.9186 46.2466 28.8692 46.3766 28.8692 46.5123V49.4869C28.2112 49.3211 27.6304 48.9013 27.2339 48.3049C26.8374 47.7086 26.652 46.9758 26.7119 46.242C26.7717 45.5081 27.0728 44.8227 27.5596 44.312C28.0464 43.8014 28.686 43.5001 29.3604 43.4636C29.4485 43.4584 29.5335 43.4263 29.6056 43.3708C29.6776 43.3154 29.734 43.239 29.7681 43.1502C29.7686 43.149 29.7692 43.148 29.7697 43.1469C29.7805 43.1182 29.789 43.0886 29.7949 43.0583C29.7955 43.0558 29.7965 43.0534 29.797 43.0508C29.8034 43.017 29.8066 42.9826 29.8067 42.9481L29.8065 42.9459V23.1765C32.4921 23.1065 35.0464 21.8942 36.9242 19.7983C38.8021 17.7024 39.8549 14.8887 39.858 11.9578ZM29.5724 1.75862C31.4213 1.75862 33.2286 2.35679 34.7659 3.47749C36.3032 4.59819 37.5014 6.19108 38.2089 8.05473C38.9165 9.91838 39.1016 11.9691 38.7409 13.9475C38.3802 15.926 37.4899 17.7433 36.1825 19.1697C34.8752 20.596 33.2095 21.5674 31.3961 21.9609C29.5828 22.3545 27.7032 22.1525 25.9951 21.3806C24.2869 20.6086 22.8269 19.3014 21.7998 17.6241C20.7726 15.9469 20.2243 13.975 20.2243 11.9578C20.2271 9.25373 21.2129 6.66132 22.9654 4.74927C24.7179 2.83722 27.094 1.76169 29.5724 1.75862ZM5.33428 11.6642C5.33435 11.5973 5.35873 11.5332 5.40206 11.4859C5.4454 11.4386 5.50416 11.412 5.56544 11.4119H8.43901C8.5003 11.412 8.55906 11.4386 8.6024 11.4859C8.64573 11.5332 8.67011 11.5973 8.67018 11.6642L8.67 17.9247L8.01485 16.973C7.90512 16.8125 7.76301 16.6818 7.59953 16.5909C7.43605 16.5001 7.25559 16.4515 7.07213 16.449C7.06563 16.4488 7.05913 16.4488 7.05254 16.4488C6.87239 16.4482 6.69446 16.4922 6.53206 16.5772C6.36966 16.6623 6.227 16.7864 6.11476 16.9401L5.33428 18.0018V11.6642ZM25.7633 46.5123C25.7621 47.0477 25.8581 47.578 26.0458 48.0727C26.2335 48.5674 26.5091 49.0166 26.8568 49.3944L26.8571 49.3948C26.911 49.4536 26.9662 49.5104 27.023 49.5652H3.87767C3.25496 49.5653 2.64999 49.3389 2.1585 48.9217C1.66702 48.5045 1.31711 47.9204 1.16414 47.2618H18.3197C18.4441 47.2618 18.5633 47.2079 18.6512 47.112C18.7391 47.0161 18.7885 46.886 18.7885 46.7504C18.7885 46.6147 18.7391 46.4846 18.6512 46.3887C18.5633 46.2928 18.4441 46.2389 18.3197 46.2389H1.09134C1.15467 45.4801 1.47551 44.7744 1.99095 44.2602C2.50639 43.7461 3.17927 43.4605 3.87767 43.4595H27.0206C26.6246 43.8419 26.3077 44.3119 26.0909 44.8383C25.8741 45.3646 25.7625 45.9353 25.7633 46.5123ZM3.87767 42.4367C3.34819 42.4366 2.82476 42.5596 2.34226 42.7975C1.85976 43.0354 1.42927 43.3828 1.07946 43.8164L1.07959 43.8136V17.2215C1.08078 16.1816 1.41181 15.1742 2.01649 14.3704C2.62116 13.5666 3.46219 13.0159 4.39677 12.8118V18.0462C4.39522 18.2552 4.45399 18.4595 4.56475 18.63C4.67551 18.8006 4.83266 18.9288 5.01393 18.9965C5.114 19.0352 5.21935 19.055 5.32549 19.0552C5.4631 19.0549 5.59888 19.0207 5.72265 18.9551C5.84643 18.8895 5.955 18.7942 6.04024 18.6764L6.84609 17.58C6.87138 17.5455 6.90356 17.5179 6.94017 17.4991C6.97678 17.4803 7.01685 17.4709 7.0573 17.4717C7.0978 17.472 7.13767 17.4826 7.17376 17.5027C7.20985 17.5227 7.24116 17.5517 7.26522 17.5872L7.94628 18.5764C8.06263 18.7454 8.22474 18.8702 8.40968 18.9331C8.59461 18.996 8.793 18.9938 8.97674 18.9269C9.16049 18.86 9.32029 18.7317 9.43352 18.5602C9.54675 18.3888 9.60768 18.1828 9.60768 17.9714V12.725H19.3113C19.4844 15.4283 20.5469 17.9724 22.3032 19.8886C24.0595 21.8048 26.3912 22.9641 28.869 23.153V42.4367H3.87767Z" fill="black"/>
</svg>
