<svg width="22" height="21" viewBox="0 0 22 21" fill="none" xmlns="http://www.w3.org/2000/svg">
    <path
        d="M11 12.8716C13.7614 12.8716 16 10.1853 16 6.87158C16 3.55787 13.7614 0.871582 11 0.871582C8.23858 0.871582 6 3.55787 6 6.87158C6 10.1853 8.23858 12.8716 11 12.8716Z"
        fill="#6A6B6C" />
    <path
        d="M20.8 17.9715C19.9 16.1715 18.2 14.6715 16 13.7715C15.4 13.5715 14.7 13.5715 14.2 13.8715C13.2 14.4715 12.2 14.7715 11 14.7715C9.79997 14.7715 8.79997 14.4715 7.79997 13.8715C7.29997 13.6715 6.59997 13.5715 5.99997 13.8715C3.79997 14.7715 2.09997 16.2715 1.19997 18.0715C0.499973 19.3715 1.59997 20.8715 3.09997 20.8715H18.9C20.4 20.8715 21.5 19.3715 20.8 17.9715Z"
        fill="#6A6B6C" />
</svg>